<svg xmlns="http://www.w3.org/2000/svg" viewBox="0 0 244 50"><path d="M2.8 41c.6 0 1.1.2 1.4.5.3.3.4.8.4 1.3l-.9.2c0-.4-.1-.6-.2-.8-.1-.2-.4-.3-.7-.3-.2 0-.3 0-.5.1l-.3.3c0 .1 0 .2-.1.4v4.9c0 .1.1.3.1.4l.3.3c.1.1.3.1.4.1.3 0 .5-.1.7-.3.1-.2.2-.5.2-.9l.9.2c0 .6-.2 1-.5 1.4-.3.3-.7.5-1.3.5-.6 0-1.1-.2-1.4-.5-.1-.5-.3-1-.3-1.6v-4c0-.3 0-.6.1-.8 0-.3.1-.5.3-.7s.3-.4.6-.5c.1-.2.4-.2.8-.2zm13.1 8.1v-8h3.4v.8h-2.5v2.7H19v.8h-2.2v2.8h2.5v.8h-3.4zm16.4-7.2v7.2h-.9v-7.2H30V41h3.6v.8h-1.3zm12.4 7.2v-8h.9v3.2h.7c.4 0 .8.1 1.1.2.3.1.5.3.6.5.2.2.3.5.3.7.1.3.1.6.1.9 0 .4 0 .7-.1 1-.1.3-.2.6-.3.8-.2.2-.4.4-.6.5-.3.1-.6.2-1 .2h-1.7zm.9-.9h.6c.3 0 .5 0 .6-.1.2-.1.3-.2.4-.3.1-.1.1-.3.2-.5v-.6-.6c0-.2-.1-.3-.2-.5-.1-.1-.2-.2-.4-.3-.2-.1-.4-.1-.7-.1h-.6v3zm25.5-1.6c0 .3-.1.6-.2.8-.1.2-.3.4-.5.6-.2.2-.4.3-.6.4-.2.1-.5.1-.7.1v.6h-.9v-.6c-.2 0-.5-.1-.7-.1-.2-.1-.4-.2-.6-.4-.2-.2-.3-.3-.4-.6-.1-.2-.2-.5-.2-.8v-3.2c0-.3.1-.6.2-.8.1-.2.3-.4.4-.6.2-.2.4-.3.6-.4.2-.1.5-.1.7-.1V41h.9v.4c.2 0 .4.1.7.1.2.1.4.2.6.4.2.2.3.3.4.6.1.2.2.5.2.8v3.3zm-.9-3.2c0-.3-.1-.6-.3-.8-.2-.2-.5-.3-.7-.3v5.4c.3 0 .5-.1.7-.3.2-.2.3-.5.3-.8v-3.2zm-2-1.1c-.3 0-.5.1-.7.3-.2.2-.3.4-.3.8v3.2c0 .3.1.6.2.8s.4.3.8.3v-5.4zm17.2 1.1l-2 5.7h-.9v-8h.9v5.7l2-5.7h.9v8h-.9v-5.7zm14.2-1.5v7.2h-.9v-7.2h-1.4V41h3.6v.8h-1.3zm15.2 7.2v-3.7H113v3.7h-.9v-8h.9v3.5h1.9V41h.9v8h-1zm12.6 0v-8h3.4v.8h-2.5v2.7h2.2v.8h-2.2v2.8h2.5v.8h-3.4zm16.4-8.1c.6 0 1.1.2 1.4.5s.4.8.4 1.3l-.9.2c0-.4-.1-.6-.2-.8-.1-.2-.4-.3-.7-.3-.2 0-.3 0-.5.1l-.3.3c-.1.1-.1.3-.1.4v4.9c0 .1.1.3.1.4l.3.3c.1.1.3.1.4.1.3 0 .5-.1.7-.3.1-.2.2-.5.2-.9l.9.2c0 .6-.2 1-.5 1.4-.3.3-.7.5-1.3.5-.6 0-1.1-.2-1.4-.5-.3-.3-.5-.8-.5-1.4v-4c0-.3 0-.6.1-.8 0-.3.1-.5.3-.7.1-.2.3-.4.6-.5.3-.4.6-.4 1-.4zm36.3 4c0 .7 0 1.4-.1 1.8-.1.5-.1.9-.3 1.2-.1.3-.3.6-.5.7-.2.2-.4.4-.7.5l-.4-.7c.2-.1.3-.2.5-.4.1-.1.3-.3.4-.5.1-.2.2-.5.2-.8.1-.3.1-.7.1-1.2V41h3.4v8h-.9v-7.2h-1.6V45zm15.7.5l1.1-4.5h.9l-1.6 6.2c-.1.5-.2.8-.4 1.1-.1.3-.3.5-.4.6-.1.1-.3.2-.4.2-.1 0-.3.1-.5.1h-.5v-.7h.4c.2 0 .3-.1.5-.2.1-.2.3-.4.4-.8l.1-.5-1.7-5.9h.9l1.2 4.4zm13.9 2.7h.6c.3 0 .5 0 .6-.1.2-.1.3-.2.4-.3.1-.1.1-.3.2-.5v-.6-.6c0-.2-.1-.3-.2-.5-.1-.1-.2-.2-.4-.3-.2-.1-.4-.1-.7-.1h-.6v3zm0-3.9h.7c.4 0 .8.1 1.1.2.3.1.5.3.6.5.2.2.3.5.3.7.1.3.1.6.1.9 0 .4 0 .7-.1 1-.1.3-.2.6-.3.8-.2.2-.4.4-.6.5-.3.1-.6.2-1 .2h-1.6v-8h3.2v.8h-2.3v2.4zm17.7 2.6c0 .7-.1 1.3-.4 1.7-.3.4-.8.6-1.4.6-.7 0-1.1-.2-1.4-.5-.3-.4-.4-.8-.4-1.4v-4c0-.3 0-.6.1-.8 0-.3.1-.5.3-.7.1-.2.3-.4.6-.5.2-.1.6-.2.9-.2.4 0 .7.1 1 .2.2.1.4.3.6.5.1.2.2.4.3.7 0 .3.1.6.1.9v3.5zm-.9-3.9v-.4c0-.1-.1-.3-.1-.4l-.3-.3c-.1-.1-.3-.1-.5-.1s-.4.1-.5.2c-.1.1-.2.2-.3.4-.1.2-.1.3-.1.5v4.7c0 .1.1.3.1.4l.3.3c.1.1.3.1.5.1s.4 0 .5-.1l.3-.3c.1-.1.1-.3.1-.4V43zm15.2 1.8c.4.1.6.3.7.7.1.3.2.7.2 1.2 0 .8-.2 1.4-.5 1.8-.3.4-.9.6-1.6.6H239v-8h1.7c.7 0 1.2.2 1.5.6.3.4.4.9.4 1.6 0 .4-.1.8-.2 1-.2.1-.4.3-.7.5zm0 1.8c0-.4-.1-.8-.2-1-.2-.2-.5-.4-1-.4h-.7v3h.7c.3 0 .5 0 .6-.1.2-.1.3-.2.3-.4.1-.2.1-.3.2-.5s.1-.4.1-.6zm0-3.5c0-.4-.1-.7-.3-.9-.2-.2-.5-.3-.9-.3h-.6v2.6h.6c.4 0 .7-.1.9-.3.2-.3.3-.6.3-1.1zm-74.9 6l-1.5-3.9-.8 1.5V49h-.9v-8h.9v4l1.9-4h.9l-1.6 3.2 1.8 4.9h-.7z" opacity=".5"/><path d="M1 19h10.5v-8.4h17.2V8.3H11.5V3.4H32V1H1zM122.9 8.3h-14.4V1h-9.9v18h9.9v-8.4h14.4V19h9.7V1h-9.7zM147.9 1h-.4l8.4 10.1h-14.4L135 19h5.2l4.5-5.6h13l4.7 5.6h10.4L157.6 1zM197.9 12.8c0 1-.3 4-7.4 4-7.2 0-7.4-3-7.4-4V1h-9.8v11.7c0 3.1.9 6.3 17.1 6.3 14.6 0 17-3.5 17-6.5V1h-9.6v11.8zM34.5 1v11.5L44.3 1zM48.3 3.4h10.9V19h9.9V3.4h11.8V1H50.4zM44.3 19V7.9L34.5 19zM220.6 5.5c0 .6.8.8 1.3 1 1.2.4 2.5.5 3.7.7 3 .4 6.1.6 9.1 1.1 1.3.2 2.7.5 4 .8 1.1.3 2.3.7 3.3 1.3 1.8 1.3 1.9 3.6.5 5.2-1.3 1.4-3.8 2.3-5.8 2.7-2.4.5-4.9.6-7.3.7-5 .2-10 0-15-.6-1.3-.2-1.9-.3-1.9-.3l-1.7-2.7s.7.1 2 .3c2.6.5 5.2.8 7.8.9 2.7.1 5.4.2 8-.1 1.5-.2 4.1-.5 4.3-2.4.3-2.1-2.2-2.6-3.7-2.9-4.8-.8-9.8-.7-14.6-2-1.8-.5-3.9-1.3-4.1-3.4-.2-2.4 2.8-3.5 4.7-3.9 3.6-.8 7.3-1.1 10.9-1.1 3.1 0 6.2.1 9.3.3 2.5.2 4.2.4 5 .5l1.8 2.9-1.8-.3c-3.6-.7-7.2-.9-10.8-.9-1.8 0-3.6 0-5.5.2-1.3.3-3.2.5-3.5 2z"/></svg>