<svg xmlns="http://www.w3.org/2000/svg" width="32" height="32" viewBox="0 0 32 32"><path d="M27.52 16.64V14.1a5.146 5.146 0 00-5.14-5.14h-5.74V6.949a2.558 2.558 0 001.92-2.469c0-1.412-1.148-2.56-2.56-2.56s-2.56 1.148-2.56 2.56c0 1.189.819 2.183 1.92 2.469V8.96H9.62a5.146 5.146 0 00-5.14 5.14v2.54h-3.2v7.68h3.2v5.76h23.04v-5.76h3.2v-7.68h-3.2zm-10.24 7.68v4.48h-2.56v-4.48h2.56zM9.6 16.96a2.24 2.24 0 114.48 0 2.24 2.24 0 01-4.48 0zm1.28 7.36h2.56v4.48h-2.56v-4.48zm10.24 4.48h-2.56v-4.48h2.56v4.48zm-.96-9.6a2.24 2.24 0 110-4.48 2.24 2.24 0 010 4.48z"/></svg>