<svg xmlns="http://www.w3.org/2000/svg" width="32" height="32" viewBox="0 0 32 32"><path d="M19.453 3.453a2.675 2.675 0 00-1.893-.787H8a2.675 2.675 0 00-2.667 2.667v21.333a2.663 2.663 0 002.653 2.667h16.013c1.467 0 2.667-1.2 2.667-2.667V11.773a2.62 2.62 0 00-.787-1.88l-6.427-6.44zM20 24h-8c-.733 0-1.333-.6-1.333-1.333s.6-1.333 1.333-1.333h8c.733 0 1.333.6 1.333 1.333S20.733 24 20 24zm0-5.333h-8c-.733 0-1.333-.6-1.333-1.333s.6-1.333 1.333-1.333h8c.733 0 1.333.6 1.333 1.333s-.6 1.333-1.333 1.333zm-2.667-8v-6L24.666 12h-6c-.733 0-1.333-.6-1.333-1.333z"/></svg>