<?xml version="1.0" standalone="no"?>
<!DOCTYPE svg PUBLIC "-//W3C//DTD SVG 20010904//EN"
 "http://www.w3.org/TR/2001/REC-SVG-20010904/DTD/svg10.dtd">
<svg version="1.0" xmlns="http://www.w3.org/2000/svg"
 width="700.000000pt" height="700.000000pt" viewBox="0 0 700.000000 700.000000"
 preserveAspectRatio="xMidYMid meet">
<metadata>
Created by potrace 1.11, written by Peter Selinger 2001-2013
</metadata>
<g transform="translate(0.000000,700.000000) scale(0.100000,-0.100000)"
fill="#000000" stroke="none">
<path d="M1430 4433 c0 -388 0 -397 19 -378 10 11 148 182 306 380 159 198
295 368 303 378 14 16 -1 17 -306 17 l-322 0 0 -397z"/>
<path d="M2051 4058 l-620 -773 -1 -557 0 -558 720 0 c396 0 721 1 722 3 2 1
5 279 8 617 l5 615 1185 5 1185 5 0 165 0 165 -1187 3 -1188 2 0 360 0 360
1404 0 c1271 0 1404 1 1410 16 8 20 8 308 0 328 -6 15 -148 16 -1515 16
l-1508 0 -620 -772z"/>
</g>
</svg>
