<svg xmlns="http://www.w3.org/2000/svg" width="32" height="32" viewBox="0 0 32 32"><path d="M17.173 6.733a9.312 9.312 0 018.093 8.093c.08.68.653 1.173 1.32 1.173.053 0 .107 0 .16-.013a1.336 1.336 0 001.16-1.493A11.975 11.975 0 0017.493 4.08c-.733-.08-1.4.44-1.48 1.173-.093.733.427 1.4 1.16 1.48zm.507 2.814c-.707-.187-1.44.24-1.627.96s.24 1.44.96 1.627a4.001 4.001 0 012.867 2.867 1.337 1.337 0 001.626.96 1.355 1.355 0 00.96-1.627c-.627-2.36-2.453-4.187-4.787-4.787zm7.96 10.8l-3.387-.387a2.658 2.658 0 00-2.187.76l-2.453 2.453c-3.773-1.92-6.867-5-8.787-8.787l2.467-2.467a2.656 2.656 0 00.76-2.187l-.387-3.36a2.668 2.668 0 00-2.653-2.36H6.706c-1.507 0-2.76 1.253-2.667 2.76.707 11.387 9.813 20.48 21.187 21.187 1.507.093 2.76-1.16 2.76-2.667v-2.307c.013-1.347-1-2.48-2.347-2.64z"/></svg>