<?xml version="1.0" encoding="utf-8"?>
<!-- Generator: Adobe Illustrator 19.2.1, SVG Export Plug-In . SVG Version: 6.00 Build 0)  -->
<svg version="1.1" id="Слой_1" xmlns="http://www.w3.org/2000/svg" xmlns:xlink="http://www.w3.org/1999/xlink" x="0px" y="0px"
	 viewBox="0 0 150 32" style="enable-background:new 0 0 150 32;" xml:space="preserve">
<style type="text/css">
	.st0{opacity:0.5;fill:#999999;enable-background:new    ;}
</style>
<g id="РЎР_x00bb_РѕР_x2116__x0020_1">
	<path class="st0" d="M2.5,25.4c0.4,0,0.7,0.1,0.8,0.3c0.2,0.2,0.3,0.5,0.3,0.8L3,26.6c0-0.2,0-0.4-0.1-0.5s-0.2-0.2-0.4-0.2
		c-0.1,0-0.2,0-0.3,0.1S2.1,26.1,2,26.1c0,0.1-0.1,0.2-0.1,0.3c0,0.1,0,0.2,0,0.3v2.5c0,0.1,0,0.1,0,0.2s0,0.2,0.1,0.2
		c0,0.1,0.1,0.1,0.2,0.2c0.1,0,0.2,0.1,0.3,0.1c0.2,0,0.3-0.1,0.4-0.2c0-0.1,0.1-0.3,0.1-0.6l0.6,0.1c0,0.4-0.1,0.6-0.3,0.8
		c-0.2,0.2-0.5,0.3-0.8,0.3c-0.4,0-0.6-0.1-0.8-0.3c-0.2-0.2-0.3-0.5-0.3-0.9v-2.4c0-0.2,0-0.3,0-0.5s0.1-0.3,0.2-0.4
		s0.2-0.2,0.3-0.3C2.1,25.4,2.2,25.4,2.5,25.4z M10.4,30.3v-4.9h2.1v0.5H11v1.6h1.3V28H11v1.7h1.5v0.5L10.4,30.3L10.4,30.3z
		 M20.4,25.9v4.4h-0.6v-4.4H19v-0.5h2.2v0.5H20.4z M28,30.3v-4.9h0.6v2H29c0.3,0,0.5,0,0.7,0.1s0.3,0.2,0.4,0.3
		c0.1,0.1,0.2,0.3,0.2,0.4c0,0.2,0,0.4,0,0.6s0,0.4-0.1,0.6c0,0.2-0.1,0.3-0.2,0.5c-0.1,0.1-0.2,0.2-0.4,0.3
		c-0.2,0.1-0.4,0.1-0.6,0.1H28z M28.5,29.8h0.4c0.2,0,0.3,0,0.4-0.1c0.1,0,0.2-0.1,0.2-0.2c0.1-0.1,0.1-0.2,0.1-0.3
		c0-0.1,0-0.2,0-0.4c0-0.1,0-0.2,0-0.4c0-0.1,0-0.2-0.1-0.3c-0.1-0.1-0.1-0.2-0.2-0.2s-0.2-0.1-0.4-0.1h-0.4V29.8z M44.1,28.8
		c0,0.2,0,0.4-0.1,0.5s-0.2,0.3-0.3,0.4s-0.2,0.2-0.4,0.2c-0.1,0-0.3,0.1-0.4,0.1v0.4h-0.6V30c-0.1,0-0.3,0-0.4-0.1
		c-0.1-0.1-0.3-0.1-0.4-0.2c-0.1-0.1-0.2-0.2-0.3-0.4c-0.1-0.1-0.1-0.3-0.1-0.5v-2c0-0.2,0-0.4,0.1-0.5s0.2-0.3,0.3-0.4
		s0.2-0.2,0.4-0.2c0.1,0,0.3-0.1,0.4-0.1v-0.3h0.6v0.3c0.1,0,0.3,0,0.4,0.1c0.1,0,0.3,0.1,0.4,0.2c0.1,0.1,0.2,0.2,0.3,0.4
		c0.1,0.1,0.1,0.3,0.1,0.5V28.8z M43.5,26.8c0-0.2-0.1-0.4-0.2-0.5c-0.1-0.1-0.3-0.2-0.4-0.2v3.3c0.2,0,0.3-0.1,0.4-0.2
		c0.1-0.1,0.2-0.3,0.2-0.5V26.8z M42.3,26.2c-0.2,0-0.3,0.1-0.5,0.2c-0.1,0.1-0.2,0.3-0.2,0.5v2c0,0.2,0,0.4,0.1,0.5
		s0.3,0.2,0.5,0.2v-3.4H42.3z M52.8,26.9l-1.2,3.4H51v-4.9h0.5v3.5l0,0l1.2-3.5h0.5v4.9h-0.5L52.8,26.9L52.8,26.9z M61.5,25.9v4.4
		h-0.6v-4.4h-0.8v-0.5h2.2v0.5H61.5z M70.7,30.3V28h-1.1v2.3H69v-4.9h0.6v2.2h1.1v-2.2h0.6v4.9H70.7z M78.4,30.3v-4.9h2.1v0.5H79
		v1.6h1.3V28H79v1.7h1.5v0.5L78.4,30.3L78.4,30.3z M88.4,25.4c0.4,0,0.7,0.1,0.8,0.3c0.2,0.2,0.3,0.5,0.3,0.8l-0.6,0.1
		c0-0.2,0-0.4-0.1-0.5s-0.2-0.2-0.4-0.2c-0.1,0-0.2,0-0.3,0.1c-0.1,0-0.1,0.1-0.2,0.1c0,0.1-0.1,0.2-0.1,0.3c0,0.1,0,0.2,0,0.3v2.5
		c0,0.1,0,0.1,0,0.2s0,0.2,0.1,0.2c0,0.1,0.1,0.1,0.2,0.2c0.1,0,0.2,0.1,0.3,0.1c0.2,0,0.3-0.1,0.4-0.2s0.1-0.3,0.1-0.5l0.6,0.1
		c0,0.4-0.1,0.6-0.3,0.8c-0.2,0.2-0.5,0.3-0.8,0.3c-0.4,0-0.6-0.1-0.8-0.3c-0.2-0.2-0.3-0.5-0.3-0.9v-2.4c0-0.2,0-0.3,0-0.5
		s0.1-0.3,0.2-0.4s0.2-0.2,0.3-0.3C88,25.4,88.2,25.4,88.4,25.4z M110.5,27.8c0,0.5,0,0.8,0,1.1c0,0.3-0.1,0.5-0.2,0.7
		s-0.2,0.3-0.3,0.5c-0.1,0.1-0.3,0.2-0.4,0.3l-0.3-0.4c0.1-0.1,0.2-0.2,0.3-0.2c0.1-0.1,0.2-0.2,0.2-0.3s0.1-0.3,0.1-0.5
		s0-0.4,0-0.8v-2.9h2v4.9h-0.6v-4.4h-1v2H110.5z M120.1,28.1l0.6-2.7h0.5l-1,3.8c-0.1,0.3-0.1,0.5-0.2,0.7s-0.2,0.3-0.2,0.4
		c-0.1,0.1-0.2,0.1-0.3,0.1c-0.1,0-0.2,0-0.3,0H119V30h0.3c0.1,0,0.2-0.1,0.3-0.2c0.1-0.1,0.2-0.3,0.2-0.5l0.1-0.3l-1.1-3.6h0.5
		L120.1,28.1L120.1,28.1z M128.6,29.8h0.4c0.2,0,0.3,0,0.4-0.1c0.1,0,0.2-0.1,0.2-0.2c0.1-0.1,0.1-0.2,0.1-0.3c0-0.1,0-0.2,0-0.4
		c0-0.1,0-0.2,0-0.4c0-0.1,0-0.2-0.1-0.3c-0.1-0.1-0.1-0.2-0.2-0.2c-0.1,0-0.2-0.1-0.4-0.1h-0.4V29.8z M128.6,27.4h0.4
		c0.3,0,0.5,0,0.7,0.1s0.3,0.2,0.4,0.3c0.1,0.1,0.2,0.3,0.2,0.4c0,0.2,0,0.4,0,0.6s0,0.4-0.1,0.6c0,0.2-0.1,0.3-0.2,0.5
		c-0.1,0.1-0.2,0.2-0.4,0.3s-0.4,0.1-0.6,0.1h-1v-4.9h2v0.5h-1.4L128.6,27.4L128.6,27.4z M139.4,29c0,0.4-0.1,0.8-0.3,1
		s-0.5,0.4-0.9,0.4s-0.7-0.1-0.9-0.3c-0.2-0.2-0.3-0.5-0.3-0.9v-2.4c0-0.2,0-0.3,0-0.5s0.1-0.3,0.2-0.4c0.1-0.1,0.2-0.2,0.3-0.3
		c0.1-0.1,0.3-0.1,0.6-0.1c0.2,0,0.4,0,0.6,0.1c0.1,0.1,0.3,0.2,0.3,0.3c0.1,0.1,0.1,0.3,0.2,0.4c0,0.2,0,0.3,0,0.5V29H139.4z
		 M138.8,26.6c0-0.1,0-0.2,0-0.3c0-0.1,0-0.2-0.1-0.2c0-0.1-0.1-0.1-0.2-0.2c-0.1,0-0.2-0.1-0.3-0.1s-0.2,0-0.3,0.1
		s-0.1,0.1-0.2,0.2c0,0.1-0.1,0.2-0.1,0.3c0,0.1,0,0.2,0,0.3v2.4c0,0.1,0,0.1,0,0.2s0,0.2,0.1,0.2c0,0.1,0.1,0.1,0.2,0.2
		c0.1,0,0.2,0.1,0.3,0.1s0.2,0,0.3-0.1c0.1,0,0.1-0.1,0.2-0.2c0-0.1,0.1-0.2,0.1-0.2c0-0.1,0-0.2,0-0.3V26.6z M148.1,27.7
		c0.2,0.1,0.4,0.2,0.4,0.4c0.1,0.2,0.1,0.4,0.1,0.7c0,0.5-0.1,0.9-0.3,1.1s-0.5,0.3-1,0.3h-0.9v-4.9h1c0.4,0,0.7,0.1,0.9,0.3
		c0.2,0.2,0.3,0.5,0.3,1c0,0.3,0,0.5-0.1,0.6C148.4,27.5,148.3,27.6,148.1,27.7L148.1,27.7z M148.1,28.8c0-0.3-0.1-0.5-0.2-0.6
		c-0.1-0.1-0.3-0.2-0.6-0.2H147v1.8h0.4c0.2,0,0.3,0,0.4-0.1c0.1-0.1,0.2-0.1,0.2-0.2s0.1-0.2,0.1-0.3
		C148.1,29.1,148.1,28.9,148.1,28.8z M148.1,26.7c0-0.3-0.1-0.4-0.2-0.6c-0.1-0.1-0.3-0.2-0.6-0.2H147v1.6h0.4
		c0.3,0,0.4-0.1,0.6-0.2C148,27.1,148.1,26.9,148.1,26.7z M102.4,30.3l-0.9-2.4l-0.5,0.9v1.4h-0.6v-4.9h0.6v2.4l0,0l1.2-2.4h0.6
		l-1,1.9l1.1,3h-0.5V30.3z"/>
	<g id="_2156042983760">
		<polygon points="1.1,12 7.5,12 7.5,6.9 18,6.9 18,5.5 7.5,5.5 7.5,2.4 20,2.4 20,1 1.1,1 		"/>
		<polygon points="75.4,5.5 66.6,5.5 66.6,1 60.6,1 60.6,12 66.6,12 66.6,6.9 75.4,6.9 75.4,12 81.3,12 81.3,1 75.4,1 		"/>
		<polygon points="90.7,1 90.4,1 95.6,7.2 87.1,7.2 86.7,7.2 82.8,12 86,12 88.7,8.5 96.6,8.5 99.5,12 105.8,12 96.5,1 		"/>
		<path d="M121.2,8.2c0,0.6-0.2,2.4-4.5,2.4c-4.4,0-4.5-1.8-4.5-2.4V1h-6v7.2c0,1.9,0.6,3.9,10.5,3.9c8.9,0,10.3-2.2,10.3-4V1h-5.8
			V8.2z"/>
		<polygon points="21.5,1 21.5,8 27.5,1 		"/>
		<polygon points="29.9,2.4 36.6,2.4 36.6,12 42.6,12 42.6,2.4 49.8,2.4 49.8,1 31.2,1 		"/>
		<polygon points="27.5,12 27.5,5.2 21.5,12 		"/>
		<path d="M135,3.7c0,0.3,0.5,0.5,0.8,0.6c0.7,0.2,1.5,0.3,2.3,0.4c1.8,0.2,3.7,0.4,5.5,0.6c0.8,0.1,1.6,0.3,2.4,0.5
			c0.7,0.2,1.4,0.4,2,0.8c1.1,0.8,1.1,2.2,0.3,3.2c-0.8,0.9-2.3,1.4-3.5,1.7c-1.5,0.3-3,0.4-4.4,0.4c-3,0.1-6.1,0-9.1-0.4
			c-0.8-0.1-1.2-0.2-1.2-0.2l-1-1.7c0,0,0.4,0.1,1.2,0.2c1.6,0.3,3.2,0.5,4.8,0.5c1.6,0.1,3.3,0.1,4.9-0.1c0.9-0.1,2.5-0.3,2.6-1.5
			c0.2-1.3-1.3-1.6-2.3-1.8c-2.9-0.5-6-0.5-8.9-1.2c-1.1-0.3-2.4-0.8-2.5-2.1c-0.1-1.4,1.7-2.1,2.8-2.4c2.2-0.5,4.4-0.7,6.6-0.7
			c1.9,0,3.8,0,5.7,0.2c1.5,0.1,2.5,0.2,3,0.3l1.1,1.7c0,0-0.4-0.1-1.1-0.2c-2.2-0.4-4.4-0.5-6.6-0.5c-1.1,0-2.2,0-3.3,0.1
			C136.3,2.7,135.2,2.8,135,3.7z"/>
	</g>
</g>
</svg>
