<?xml version="1.0" encoding="utf-8"?>
<!-- Generator: Adobe Illustrator 19.2.1, SVG Export Plug-In . SVG Version: 6.00 Build 0)  -->
<svg version="1.1" id="Слой_1" xmlns="http://www.w3.org/2000/svg" xmlns:xlink="http://www.w3.org/1999/xlink" x="0px" y="0px"
	 viewBox="0 0 244 50" style="enable-background:new 0 0 244 50;" xml:space="preserve">
<style type="text/css">
	.st0{opacity:0.5;}
</style>
<g id="Слой_x0020_1" class="st0">
	<path d="M2.8,41c0.6,0,1.1,0.2,1.4,0.5c0.3,0.3,0.4,0.8,0.4,1.3l-0.9,0.2c0-0.4-0.1-0.6-0.2-0.8c-0.1-0.2-0.4-0.3-0.7-0.3
		c-0.2,0-0.3,0-0.5,0.1c-0.1,0.1-0.2,0.2-0.3,0.3C2,42.4,2,42.5,1.9,42.7c0,0.2,0,0.3,0,0.4v4.1c0,0.1,0,0.2,0,0.4
		c0,0.1,0.1,0.3,0.1,0.4c0.1,0.1,0.2,0.2,0.3,0.3c0.1,0.1,0.3,0.1,0.4,0.1c0.3,0,0.5-0.1,0.7-0.3c0.1-0.2,0.2-0.5,0.2-0.9l0.9,0.2
		c0,0.6-0.2,1-0.5,1.4c-0.3,0.3-0.7,0.5-1.3,0.5c-0.6,0-1.1-0.2-1.4-0.5C1.2,48.3,1,47.8,1,47.2v-4c0-0.3,0-0.6,0.1-0.8
		c0-0.3,0.1-0.5,0.3-0.7s0.3-0.4,0.6-0.5C2.1,41,2.4,41,2.8,41z M15.9,49.1v-8h3.4v0.8h-2.5v2.7H19v0.8h-2.2v2.8h2.5v0.8H15.9z
		 M32.3,41.9v7.2h-0.9v-7.2H30V41h3.6v0.8H32.3z M44.7,49.1v-8h0.9v3.2h0.7c0.4,0,0.8,0.1,1.1,0.2c0.3,0.1,0.5,0.3,0.6,0.5
		c0.2,0.2,0.3,0.5,0.3,0.7c0.1,0.3,0.1,0.6,0.1,0.9c0,0.4,0,0.7-0.1,1c-0.1,0.3-0.2,0.6-0.3,0.8c-0.2,0.2-0.4,0.4-0.6,0.5
		c-0.3,0.1-0.6,0.2-1,0.2H44.7z M45.6,48.2h0.6c0.3,0,0.5,0,0.6-0.1c0.2-0.1,0.3-0.2,0.4-0.3c0.1-0.1,0.1-0.3,0.2-0.5
		c0-0.2,0-0.4,0-0.6c0-0.2,0-0.4,0-0.6c0-0.2-0.1-0.3-0.2-0.5c-0.1-0.1-0.2-0.2-0.4-0.3c-0.2-0.1-0.4-0.1-0.7-0.1h-0.6V48.2z
		 M71.1,46.6c0,0.3-0.1,0.6-0.2,0.8c-0.1,0.2-0.3,0.4-0.5,0.6c-0.2,0.2-0.4,0.3-0.6,0.4c-0.2,0.1-0.5,0.1-0.7,0.1v0.6h-0.9v-0.6
		c-0.2,0-0.5-0.1-0.7-0.1c-0.2-0.1-0.4-0.2-0.6-0.4c-0.2-0.2-0.3-0.3-0.4-0.6c-0.1-0.2-0.2-0.5-0.2-0.8v-3.2c0-0.3,0.1-0.6,0.2-0.8
		c0.1-0.2,0.3-0.4,0.4-0.6c0.2-0.2,0.4-0.3,0.6-0.4c0.2-0.1,0.5-0.1,0.7-0.1V41h0.9l0,0.4c0.2,0,0.4,0.1,0.7,0.1
		c0.2,0.1,0.4,0.2,0.6,0.4c0.2,0.2,0.3,0.3,0.4,0.6c0.1,0.2,0.2,0.5,0.2,0.8V46.6z M70.2,43.4c0-0.3-0.1-0.6-0.3-0.8
		c-0.2-0.2-0.5-0.3-0.7-0.3v5.4c0.3,0,0.5-0.1,0.7-0.3c0.2-0.2,0.3-0.5,0.3-0.8V43.4z M68.2,42.3c-0.3,0-0.5,0.1-0.7,0.3
		c-0.2,0.2-0.3,0.4-0.3,0.8v3.2c0,0.3,0.1,0.6,0.2,0.8s0.4,0.3,0.8,0.3V42.3z M85.4,43.4l-2,5.7h-0.9v-8h0.9v5.7l0,0l2-5.7h0.9v8
		h-0.9L85.4,43.4L85.4,43.4z M99.6,41.9v7.2h-0.9v-7.2h-1.4V41h3.6v0.8H99.6z M114.8,49.1v-3.7H113v3.7h-0.9v-8h0.9v3.5h1.9V41h0.9
		v8H114.8z M127.4,49.1v-8h3.4v0.8h-2.5v2.7h2.2v0.8h-2.2v2.8h2.5v0.8H127.4z M143.8,41c0.6,0,1.1,0.2,1.4,0.5s0.4,0.8,0.4,1.3
		l-0.9,0.2c0-0.4-0.1-0.6-0.2-0.8c-0.1-0.2-0.4-0.3-0.7-0.3c-0.2,0-0.3,0-0.5,0.1c-0.1,0.1-0.2,0.2-0.3,0.3
		c-0.1,0.1-0.1,0.3-0.1,0.4c0,0.2,0,0.3,0,0.4v4.1c0,0.1,0,0.2,0,0.4c0,0.1,0.1,0.3,0.1,0.4c0.1,0.1,0.2,0.2,0.3,0.3
		c0.1,0.1,0.3,0.1,0.4,0.1c0.3,0,0.5-0.1,0.7-0.3c0.1-0.2,0.2-0.5,0.2-0.9l0.9,0.2c0,0.6-0.2,1-0.5,1.4c-0.3,0.3-0.7,0.5-1.3,0.5
		c-0.6,0-1.1-0.2-1.4-0.5c-0.3-0.3-0.5-0.8-0.5-1.4v-4c0-0.3,0-0.6,0.1-0.8c0-0.3,0.1-0.5,0.3-0.7c0.1-0.2,0.3-0.4,0.6-0.5
		C143.1,41,143.4,41,143.8,41z M180.1,45c0,0.7,0,1.4-0.1,1.8c-0.1,0.5-0.1,0.9-0.3,1.2c-0.1,0.3-0.3,0.6-0.5,0.7
		c-0.2,0.2-0.4,0.4-0.7,0.5l-0.4-0.7c0.2-0.1,0.3-0.2,0.5-0.4c0.1-0.1,0.3-0.3,0.4-0.5c0.1-0.2,0.2-0.5,0.2-0.8
		c0.1-0.3,0.1-0.7,0.1-1.2V41h3.4v8h-0.9v-7.2h-1.6V45z M195.8,45.5l1.1-4.5h0.9l-1.6,6.2c-0.1,0.5-0.2,0.8-0.4,1.1
		c-0.1,0.3-0.3,0.5-0.4,0.6c-0.1,0.1-0.3,0.2-0.4,0.2c-0.1,0-0.3,0.1-0.5,0.1H194v-0.7h0.4c0.2,0,0.3-0.1,0.5-0.2
		c0.1-0.2,0.3-0.4,0.4-0.8l0.1-0.5l-1.7-5.9h0.9L195.8,45.5L195.8,45.5z M209.7,48.2h0.6c0.3,0,0.5,0,0.6-0.1
		c0.2-0.1,0.3-0.2,0.4-0.3c0.1-0.1,0.1-0.3,0.2-0.5c0-0.2,0-0.4,0-0.6c0-0.2,0-0.4,0-0.6c0-0.2-0.1-0.3-0.2-0.5
		c-0.1-0.1-0.2-0.2-0.4-0.3c-0.2-0.1-0.4-0.1-0.7-0.1h-0.6V48.2z M209.7,44.3h0.7c0.4,0,0.8,0.1,1.1,0.2c0.3,0.1,0.5,0.3,0.6,0.5
		c0.2,0.2,0.3,0.5,0.3,0.7c0.1,0.3,0.1,0.6,0.1,0.9c0,0.4,0,0.7-0.1,1c-0.1,0.3-0.2,0.6-0.3,0.8c-0.2,0.2-0.4,0.4-0.6,0.5
		c-0.3,0.1-0.6,0.2-1,0.2h-1.6v-8h3.2v0.8h-2.3V44.3z M227.4,46.9c0,0.7-0.1,1.3-0.4,1.7c-0.3,0.4-0.8,0.6-1.4,0.6
		c-0.7,0-1.1-0.2-1.4-0.5c-0.3-0.4-0.4-0.8-0.4-1.4v-4c0-0.3,0-0.6,0.1-0.8c0-0.3,0.1-0.5,0.3-0.7c0.1-0.2,0.3-0.4,0.6-0.5
		c0.2-0.1,0.6-0.2,0.9-0.2c0.4,0,0.7,0.1,1,0.2c0.2,0.1,0.4,0.3,0.6,0.5c0.1,0.2,0.2,0.4,0.3,0.7c0,0.3,0.1,0.6,0.1,0.9V46.9z
		 M226.5,43c0-0.1,0-0.3,0-0.4c0-0.1-0.1-0.3-0.1-0.4c-0.1-0.1-0.2-0.2-0.3-0.3c-0.1-0.1-0.3-0.1-0.5-0.1c-0.2,0-0.4,0.1-0.5,0.2
		c-0.1,0.1-0.2,0.2-0.3,0.4c-0.1,0.2-0.1,0.3-0.1,0.5c0,0.2,0,0.3,0,0.4v3.9c0,0.1,0,0.2,0,0.4c0,0.1,0.1,0.3,0.1,0.4
		c0.1,0.1,0.2,0.2,0.3,0.3c0.1,0.1,0.3,0.1,0.5,0.1c0.2,0,0.4,0,0.5-0.1c0.1-0.1,0.2-0.2,0.3-0.3c0.1-0.1,0.1-0.3,0.1-0.4
		c0-0.2,0-0.3,0-0.5V43z M241.7,44.8c0.4,0.1,0.6,0.3,0.7,0.7c0.1,0.3,0.2,0.7,0.2,1.2c0,0.8-0.2,1.4-0.5,1.8
		c-0.3,0.4-0.9,0.6-1.6,0.6H239v-8h1.7c0.7,0,1.2,0.2,1.5,0.6c0.3,0.4,0.4,0.9,0.4,1.6c0,0.4-0.1,0.8-0.2,1
		C242.2,44.4,242,44.6,241.7,44.8L241.7,44.8z M241.7,46.6c0-0.4-0.1-0.8-0.2-1c-0.2-0.2-0.5-0.4-1-0.4h-0.7v3h0.7
		c0.3,0,0.5,0,0.6-0.1c0.2-0.1,0.3-0.2,0.3-0.4c0.1-0.2,0.1-0.3,0.2-0.5C241.7,47,241.7,46.8,241.7,46.6z M241.7,43.1
		c0-0.4-0.1-0.7-0.3-0.9c-0.2-0.2-0.5-0.3-0.9-0.3h-0.6v2.6h0.6c0.4,0,0.7-0.1,0.9-0.3C241.6,43.9,241.7,43.6,241.7,43.1z
		 M166.8,49.1l-1.5-3.9l-0.8,1.5v2.3h-0.9v-8h0.9v4h0l1.9-4h0.9l-1.6,3.2l1.8,4.9H166.8z"/>
</g>
<g id="РЎР_x00bb_РѕР_x2116__x0020_1">
	<polygon points="1,19 11.5,19 11.5,10.6 28.7,10.6 28.7,8.3 11.5,8.3 11.5,3.4 32,3.4 32,1 1,1 	"/>
	<polygon points="122.9,8.3 108.5,8.3 108.5,1 98.6,1 98.6,19 108.5,19 108.5,10.6 122.9,10.6 122.9,19 132.6,19 132.6,1 122.9,1 	
		"/>
	<polygon points="147.9,1 147.5,1 155.9,11.1 142.1,11.1 141.5,11.1 135,19 140.2,19 144.7,13.4 157.7,13.4 162.4,19 172.8,19 
		157.6,1 	"/>
	<path d="M197.9,12.8c0,1-0.3,4-7.4,4c-7.2,0-7.4-3-7.4-4V1h-9.8v11.7c0,3.1,0.9,6.3,17.1,6.3c14.6,0,17-3.5,17-6.5V1h-9.6V12.8z"/>
	<polygon points="34.5,1 34.5,12.5 44.3,1 	"/>
	<polygon points="48.3,3.4 59.2,3.4 59.2,19 69.1,19 69.1,3.4 80.9,3.4 80.9,1 50.4,1 	"/>
	<polygon points="44.3,19 44.3,7.9 34.5,19 	"/>
	<path d="M220.6,5.5c0,0.6,0.8,0.8,1.3,1c1.2,0.4,2.5,0.5,3.7,0.7c3,0.4,6.1,0.6,9.1,1.1c1.3,0.2,2.7,0.5,4,0.8
		c1.1,0.3,2.3,0.7,3.3,1.3c1.8,1.3,1.9,3.6,0.5,5.2c-1.3,1.4-3.8,2.3-5.8,2.7c-2.4,0.5-4.9,0.6-7.3,0.7c-5,0.2-10,0-15-0.6
		c-1.3-0.2-1.9-0.3-1.9-0.3l-1.7-2.7c0,0,0.7,0.1,2,0.3c2.6,0.5,5.2,0.8,7.8,0.9c2.7,0.1,5.4,0.2,8-0.1c1.5-0.2,4.1-0.5,4.3-2.4
		c0.3-2.1-2.2-2.6-3.7-2.9c-4.8-0.8-9.8-0.7-14.6-2c-1.8-0.5-3.9-1.3-4.1-3.4c-0.2-2.4,2.8-3.5,4.7-3.9c3.6-0.8,7.3-1.1,10.9-1.1
		c3.1,0,6.2,0.1,9.3,0.3c2.5,0.2,4.2,0.4,5,0.5l1.8,2.9c0,0-0.6-0.1-1.8-0.3c-3.6-0.7-7.2-0.9-10.8-0.9c-1.8,0-3.6,0-5.5,0.2
		C222.8,3.8,220.9,4,220.6,5.5z"/>
</g>
</svg>
