<svg version="1.1" id="Слой_1" xmlns="http://www.w3.org/2000/svg" x="0" y="0" viewBox="0 0 150 32" xml:space="preserve"><style>.st1{fill:#ffe800}</style><g id="РЎР_x00bb_РѕР_x2116__x0020_1"><path d="M2.5 25.4c.4 0 .7.1.8.3.2.2.3.5.3.8l-.6.1c0-.2 0-.4-.1-.5-.1-.1-.2-.2-.4-.2-.1 0-.2 0-.3.1s-.1.1-.2.1c0 .1-.1.2-.1.3v3c0 .1 0 .2.1.2 0 .1.1.1.2.2.1 0 .2.1.3.1.2 0 .3-.1.4-.2 0-.1.1-.3.1-.6l.6.1c0 .4-.1.6-.3.8-.2.2-.5.3-.8.3-.4 0-.6-.1-.8-.3-.2-.2-.3-.5-.3-.9v-2.4-.5c0-.2.1-.3.2-.4l.3-.3c.2-.1.3-.1.6-.1zm7.9 4.9v-4.9h2.1v.5H11v1.6h1.3v.5H11v1.7h1.5v.5h-2.1zm10-4.4v4.4h-.6v-4.4H19v-.5h2.2v.5h-.8zm7.6 4.4v-4.9h.6v2h.4c.3 0 .5 0 .7.1.2.1.3.2.4.3.1.1.2.3.2.4v.6c0 .2 0 .4-.1.6 0 .2-.1.3-.2.5-.1.1-.2.2-.4.3-.2.1-.4.1-.6.1h-1zm.5-.5h.4c.2 0 .3 0 .4-.1.1 0 .2-.1.2-.2.1-.1.1-.2.1-.3v-.4-.4c0-.1 0-.2-.1-.3-.1-.1-.1-.2-.2-.2s-.2-.1-.4-.1h-.4v2zm15.6-1c0 .2 0 .4-.1.5-.1.1-.2.3-.3.4-.1.1-.2.2-.4.2-.1 0-.3.1-.4.1v.4h-.6V30c-.1 0-.3 0-.4-.1-.1-.1-.3-.1-.4-.2-.1-.1-.2-.2-.3-.4-.1-.1-.1-.3-.1-.5v-2c0-.2 0-.4.1-.5.1-.1.2-.3.3-.4.1-.1.2-.2.4-.2.1 0 .3-.1.4-.1v-.3h.6v.3c.1 0 .3 0 .4.1.1 0 .3.1.4.2.1.1.2.2.3.4.1.1.1.3.1.5v2zm-.6-2c0-.2-.1-.4-.2-.5-.1-.1-.3-.2-.4-.2v3.3c.2 0 .3-.1.4-.2.1-.1.2-.3.2-.5v-1.9zm-1.2-.6c-.2 0-.3.1-.5.2-.1.1-.2.3-.2.5v2c0 .2 0 .4.1.5.1.1.3.2.5.2v-3.4zm10.5.7l-1.2 3.4H51v-4.9h.5v3.5l1.2-3.5h.5v4.9h-.5l.1-3.4zm8.7-1v4.4h-.6v-4.4h-.8v-.5h2.2v.5h-.8zm9.2 4.4V28h-1.1v2.3H69v-4.9h.6v2.2h1.1v-2.2h.6v4.9h-.6zm7.7 0v-4.9h2.1v.5H79v1.6h1.3v.5H79v1.7h1.5v.5h-2.1zm10-4.9c.4 0 .7.1.8.3.2.2.3.5.3.8l-.6.1c0-.2 0-.4-.1-.5-.1-.1-.2-.2-.4-.2-.1 0-.2 0-.3.1-.1 0-.1.1-.2.1 0 .1-.1.2-.1.3v3c0 .1 0 .2.1.2 0 .1.1.1.2.2.1 0 .2.1.3.1.2 0 .3-.1.4-.2.1-.1.1-.3.1-.5l.6.1c0 .4-.1.6-.3.8-.2.2-.5.3-.8.3-.4 0-.6-.1-.8-.3-.2-.2-.3-.5-.3-.9v-2.4-.5c0-.2.1-.3.2-.4l.3-.3c.2-.2.4-.2.6-.2zm22.1 2.4v1.1c0 .3-.1.5-.2.7-.1.2-.2.3-.3.5-.1.1-.3.2-.4.3l-.3-.4c.1-.1.2-.2.3-.2.1-.1.2-.2.2-.3s.1-.3.1-.5v-3.7h2v4.9h-.6v-4.4h-1v2zm9.6.3l.6-2.7h.5l-1 3.8c-.1.3-.1.5-.2.7-.1.2-.2.3-.2.4-.1.1-.2.1-.3.1h-.5V30h.3c.1 0 .2-.1.3-.2.1-.1.2-.3.2-.5l.1-.3-1.1-3.6h.5l.8 2.7zm8.5 1.7h.4c.2 0 .3 0 .4-.1.1 0 .2-.1.2-.2.1-.1.1-.2.1-.3v-.4-.4c0-.1 0-.2-.1-.3-.1-.1-.1-.2-.2-.2s-.2-.1-.4-.1h-.4v2zm0-2.4h.4c.3 0 .5 0 .7.1.2.1.3.2.4.3.1.1.2.3.2.4v.6c0 .2 0 .4-.1.6 0 .2-.1.3-.2.5-.1.1-.2.2-.4.3s-.4.1-.6.1h-1v-4.9h2v.5h-1.4v1.5zm10.8 1.6c0 .4-.1.8-.3 1-.2.2-.5.4-.9.4s-.7-.1-.9-.3c-.2-.2-.3-.5-.3-.9v-2.4-.5c0-.2.1-.3.2-.4l.3-.3c.1-.1.3-.1.6-.1.2 0 .4 0 .6.1.1.1.3.2.3.3.1.1.1.3.2.4V29zm-.6-2.4v-.3c0-.1 0-.2-.1-.2 0-.1-.1-.1-.2-.2-.1 0-.2-.1-.3-.1-.1 0-.2 0-.3.1l-.2.2c0 .1-.1.2-.1.3v2.9c0 .1 0 .2.1.2 0 .1.1.1.2.2.1 0 .2.1.3.1.1 0 .2 0 .3-.1.1 0 .1-.1.2-.2 0-.1.1-.2.1-.2V26.6zm9.3 1.1c.2.1.4.2.4.4.1.2.1.4.1.7 0 .5-.1.9-.3 1.1-.2.2-.5.3-1 .3h-.9v-4.9h1c.4 0 .7.1.9.3.2.2.3.5.3 1 0 .3 0 .5-.1.6-.1.3-.2.4-.4.5zm0 1.1c0-.3-.1-.5-.2-.6-.1-.1-.3-.2-.6-.2h-.3v1.8h.4c.2 0 .3 0 .4-.1.1-.1.2-.1.2-.2s.1-.2.1-.3v-.4zm0-2.1c0-.3-.1-.4-.2-.6-.1-.1-.3-.2-.6-.2h-.3v1.6h.4c.3 0 .4-.1.6-.2 0-.2.1-.4.1-.6zm-45.7 3.6l-.9-2.4-.5.9v1.4h-.6v-4.9h.6v2.4l1.2-2.4h.6l-1 1.9 1.1 3h-.5z" opacity=".5" fill="#fff"/><g id="_2156042983760"><path class="st1" d="M1.1 12h6.4V6.9H18V5.5H7.5V2.4H20V1H1.1zM75.4 5.5h-8.8V1h-6v11h6V6.9h8.8V12h5.9V1h-5.9zM90.7 1h-.3l5.2 6.2h-8.9L82.8 12H86l2.7-3.5h7.9l2.9 3.5h6.3L96.5 1zM121.2 8.2c0 .6-.2 2.4-4.5 2.4-4.4 0-4.5-1.8-4.5-2.4V1h-6v7.2c0 1.9.6 3.9 10.5 3.9 8.9 0 10.3-2.2 10.3-4V1h-5.8v7.2zM21.5 1v7l6-7zM29.9 2.4h6.7V12h6V2.4h7.2V1H31.2zM27.5 12V5.2l-6 6.8zM135 3.7c0 .3.5.5.8.6.7.2 1.5.3 2.3.4 1.8.2 3.7.4 5.5.6.8.1 1.6.3 2.4.5.7.2 1.4.4 2 .8 1.1.8 1.1 2.2.3 3.2-.8.9-2.3 1.4-3.5 1.7-1.5.3-3 .4-4.4.4-3 .1-6.1 0-9.1-.4-.8-.1-1.2-.2-1.2-.2l-1-1.7s.4.1 1.2.2c1.6.3 3.2.5 4.8.5 1.6.1 3.3.1 4.9-.1.9-.1 2.5-.3 2.6-1.5.2-1.3-1.3-1.6-2.3-1.8-2.9-.5-6-.5-8.9-1.2-1.1-.3-2.4-.8-2.5-2.1-.1-1.4 1.7-2.1 2.8-2.4 2.2-.5 4.4-.7 6.6-.7 1.9 0 3.8 0 5.7.2 1.5.1 2.5.2 3 .3l1.1 1.7s-.4-.1-1.1-.2c-2.2-.4-4.4-.5-6.6-.5-1.1 0-2.2 0-3.3.1-.8.6-1.9.7-2.1 1.6z"/></g></g></svg>