<!-- Generated by IcoMoon.io -->
<svg version="1.1" xmlns="http://www.w3.org/2000/svg" width="32" height="32" viewBox="0 0 32 32">
<title>bot</title>
<path d="M27.52 16.64v-2.54c0-2.835-2.307-5.14-5.14-5.14h-5.74v-2.011c1.101-0.286 1.92-1.28 1.92-2.469 0-1.412-1.148-2.56-2.56-2.56s-2.56 1.148-2.56 2.56c0 1.189 0.819 2.183 1.92 2.469v2.011h-5.74c-2.834 0-5.14 2.306-5.14 5.14v2.54h-3.2v7.68h3.2v5.76h23.040v-5.76h3.2v-7.68h-3.2zM17.28 24.32v4.48h-2.56v-4.48h2.56zM9.6 16.96c0-1.237 1.003-2.24 2.24-2.24s2.24 1.003 2.24 2.24-1.003 2.24-2.24 2.24-2.24-1.003-2.24-2.24zM10.88 24.32h2.56v4.48h-2.56v-4.48zM21.12 28.8h-2.56v-4.48h2.56v4.48zM20.16 19.2c-1.237 0-2.24-1.003-2.24-2.24s1.003-2.24 2.24-2.24 2.24 1.003 2.24 2.24-1.003 2.24-2.24 2.24z"></path>
</svg>
