<!-- Generated by IcoMoon.io -->
<svg version="1.1" xmlns="http://www.w3.org/2000/svg" width="32" height="32" viewBox="0 0 32 32">
<title>doc</title>
<path d="M19.453 3.453c-0.507-0.507-1.187-0.787-1.893-0.787h-9.56c-1.467 0-2.667 1.2-2.667 2.667v21.333c0 1.467 1.187 2.667 2.653 2.667h16.013c1.467 0 2.667-1.2 2.667-2.667v-14.893c0-0.707-0.28-1.387-0.787-1.88l-6.427-6.44zM20 24h-8c-0.733 0-1.333-0.6-1.333-1.333s0.6-1.333 1.333-1.333h8c0.733 0 1.333 0.6 1.333 1.333s-0.6 1.333-1.333 1.333zM20 18.667h-8c-0.733 0-1.333-0.6-1.333-1.333s0.6-1.333 1.333-1.333h8c0.733 0 1.333 0.6 1.333 1.333s-0.6 1.333-1.333 1.333zM17.333 10.667v-6l7.333 7.333h-6c-0.733 0-1.333-0.6-1.333-1.333z"></path>
</svg>
