<!-- Generated by IcoMoon.io -->
<svg version="1.1" xmlns="http://www.w3.org/2000/svg" width="32" height="32" viewBox="0 0 32 32">
<title>phone</title>
<path d="M17.173 6.733c4.24 0.533 7.56 3.853 8.093 8.093 0.080 0.68 0.653 1.173 1.32 1.173 0.053 0 0.107 0 0.16-0.013 0.733-0.093 1.253-0.76 1.16-1.493-0.68-5.453-4.96-9.733-10.413-10.413-0.733-0.080-1.4 0.44-1.48 1.173-0.093 0.733 0.427 1.4 1.16 1.48zM17.68 9.547c-0.707-0.187-1.44 0.24-1.627 0.96s0.24 1.44 0.96 1.627c1.4 0.36 2.493 1.453 2.867 2.867 0.16 0.6 0.693 1 1.293 1 0.107 0 0.227-0.013 0.333-0.040 0.707-0.187 1.133-0.92 0.96-1.627-0.627-2.36-2.453-4.187-4.787-4.787zM25.64 20.347l-3.387-0.387c-0.813-0.093-1.613 0.187-2.187 0.76l-2.453 2.453c-3.773-1.92-6.867-5-8.787-8.787l2.467-2.467c0.573-0.573 0.853-1.373 0.76-2.187l-0.387-3.36c-0.16-1.347-1.293-2.36-2.653-2.36h-2.307c-1.507 0-2.76 1.253-2.667 2.76 0.707 11.387 9.813 20.48 21.187 21.187 1.507 0.093 2.76-1.16 2.76-2.667v-2.307c0.013-1.347-1-2.48-2.347-2.64z"></path>
</svg>
